.
 
http://www.scenetime.com    -  Hottest private tracker on the net. !!!

New release on http://www.scenetime.com

        Seed back for speed


...................................NFO:.................................................








































          
          
              
              
                    
                    
                    
                    

VLOG.2008.DVDRiP.XviD-SiC

Poster:
[img]http://img69.imageshack.us/img69/2300/vlog.jpg[/img]

IMDB Link: 
http://www.imdb.com/title/tt1554092/

Description:
Millions watched in horror as popular and sexy vlogger Brooke Marks was murdered on camera during one of her live webcasts. Her body was never found. But what happened in the weeks before might be the most depraved crimes of all. These are the days and nights leading up to Brookes brutal death: Her casual hook-ups with various guys. Her cruel put-downs of other women. And the faceless cyber-stalker who forces Brooke to watch as those closest to her are systematically tortured, slaughtered and defiled. 

MediaInfo:
General
Complete name                    : E:\Customize\VLOG\VIDEO_TS\VLOG.2008.DVDRiP.XviD-SiC.avi
Format                           : AVI
Format/Info                      : Audio Video Interleave
File size                        : 1.67 GiB
Duration                         : 1h 10mn
Overall bit rate                 : 3 412 Kbps

Video
ID                               : 0
Format                           : MPEG-4 Visual
Format profile                   : Advanced Simple@L5
Format settings, BVOP            : 1
Format settings, QPel            : No
Format settings, GMC             : No warppoints
Format settings, Matrix          : Default (H.263)
Codec ID                         : XVID
Codec ID/Hint                    : XviD
Duration                         : 1h 10mn
Bit rate                         : 2 956 Kbps
Width                            : 720 pixels
Height                           : 400 pixels
Display aspect ratio             : 16:9
Frame rate                       : 23.976 fps
Color space                      : YUV
Chroma subsampling               : 4:2:0
Bit depth                        : 8 bits
Scan type                        : Progressive
Compression mode                 : Lossy
Bits/(Pixel*Frame)               : 0.428
Stream size                      : 1.45 GiB (87%)
Writing library                  : XviD 1.2.1 (UTC 2008-12-04)

Audio
ID                               : 1
Format                           : AC-3
Format/Info                      : Audio Coding 3
Mode extension                   : CM (complete main)
Codec ID                         : 2000
Duration                         : 1h 10mn
Bit rate mode                    : Constant
Bit rate                         : 448 Kbps
Channel(s)                       : 6 channels
Channel positions                : Front: L C R, Side: L R, LFE
Sampling rate                    : 48.0 KHz
Bit depth                        : 16 bits
Compression mode                 : Lossy
Stream size                      : 225 MiB (13%)
Alignment                        : Aligned on interleaves
Interleave, duration             : 64 ms (1.53 video frames)
Interleave, preload duration     : 960 ms
Title                            : VTS_02_1 T80 3_2ch 448Kbps DELAY 0ms

Screenshots:
[img]http://img5.imageshack.us/img5/3499/vlcsnap2011100319h19m22.png[/img]
[img]http://img810.imageshack.us/img810/8020/vlcsnap2011100319h19m54.png[/img]
[img]http://img705.imageshack.us/img705/4222/vlcsnap2011100319h20m25.png[/img]
[img]http://img8.imageshack.us/img8/4396/vlcsnap2011100319h20m55.png[/img]
[img]http://img14.imageshack.us/img14/5914/vlcsnap2011100319h21m36.png[/img]


Note : Production date is listed as 2008 on IMDB, but this movie is just now being released.   

Source: Our own

Enjoy!

Respects to CaptainHomey, Cyanide, CM8, Rx, THC, ELEKTRI4KA, 
Killerhz, PA, YeFsTe, BoxSlots, MrRep and everyone in the struggle...